<svg width="163" height="47" viewBox="0 0 163 47" fill="none" xmlns="http://www.w3.org/2000/svg">
                        <g clip-path="url(#clip0_388_569)">
                            <rect width="47" height="47" rx="23.5" fill="#353961" />
                            <path
                                    d="M25.9061 12.8028C28.6759 12.8028 31.1049 13.3355 33.193 14.4008C35.3236 15.4661 36.9856 17.0854 38.1787 19.2587C39.3719 21.432 39.9685 24.1806 39.9685 27.5044V47H33.8322V28.2075C33.8322 24.9263 33.0225 22.4547 31.4032 20.7928C29.8265 19.1309 27.5893 18.2999 24.6916 18.2999C22.5183 18.2999 20.622 18.7261 19.0027 19.5783C17.3834 20.4306 16.1263 21.6877 15.2314 23.3496C14.3792 25.0115 13.953 27.0783 13.953 29.5498V47H7.81672V-0.428644H13.953V22.263L12.7386 19.834C13.8465 17.6181 15.551 15.8923 17.8522 14.6565C20.1533 13.4207 22.8379 12.8028 25.9061 12.8028Z"
                                    fill="white" />
                        </g>
                        <path
                                d="M69.064 9.2H72.184V26H69.064V9.2ZM60.376 26H57.256V9.2H60.376V26ZM69.304 18.8H60.112V16.136H69.304V18.8ZM74.3097 26L81.8697 9.2H84.9417L92.5257 26H89.2617L82.7577 10.856H84.0057L77.5257 26H74.3097ZM77.7897 22.112L78.6297 19.664H87.7017L88.5417 22.112H77.7897ZM94.6623 26V9.2H101.574C103.062 9.2 104.334 9.44 105.39 9.92C106.462 10.4 107.286 11.088 107.862 11.984C108.438 12.88 108.726 13.944 108.726 15.176C108.726 16.408 108.438 17.472 107.862 18.368C107.286 19.248 106.462 19.928 105.39 20.408C104.334 20.872 103.062 21.104 101.574 21.104H96.3903L97.7823 19.688V26H94.6623ZM105.654 26L101.406 19.904H104.742L109.014 26H105.654ZM97.7823 20.024L96.3903 18.536H101.43C102.806 18.536 103.838 18.24 104.526 17.648C105.23 17.056 105.582 16.232 105.582 15.176C105.582 14.104 105.23 13.28 104.526 12.704C103.838 12.128 102.806 11.84 101.43 11.84H96.3903L97.7823 10.304V20.024ZM109.841 26L117.401 9.2H120.473L128.057 26H124.793L118.289 10.856H119.537L113.057 26H109.841ZM113.321 22.112L114.161 19.664H123.233L124.073 22.112H113.321ZM130.194 26V9.2H132.762L143.298 22.136H142.026V9.2H145.122V26H142.554L132.018 13.064H133.29V26H130.194ZM153.031 26V11.84H147.463V9.2H161.719V11.84H156.151V26H153.031Z"
                                fill="#1E2139" />
                        <path
                                d="M56.089 42V34.3H62.898V42H61.49V35.158L61.82 35.51H57.167L57.497 35.158V42H56.089ZM68.6442 42.11C68.0429 42.11 67.4892 42.011 66.9832 41.813C66.4772 41.615 66.0372 41.34 65.6632 40.988C65.2892 40.6287 64.9995 40.2107 64.7942 39.734C64.5889 39.25 64.4862 38.722 64.4862 38.15C64.4862 37.578 64.5889 37.0537 64.7942 36.577C64.9995 36.093 65.2892 35.675 65.6632 35.323C66.0372 34.9637 66.4772 34.685 66.9832 34.487C67.4892 34.289 68.0392 34.19 68.6332 34.19C69.2345 34.19 69.7845 34.289 70.2832 34.487C70.7892 34.685 71.2292 34.9637 71.6032 35.323C71.9772 35.675 72.2669 36.093 72.4722 36.577C72.6775 37.0537 72.7802 37.578 72.7802 38.15C72.7802 38.722 72.6775 39.25 72.4722 39.734C72.2669 40.218 71.9772 40.636 71.6032 40.988C71.2292 41.34 70.7892 41.615 70.2832 41.813C69.7845 42.011 69.2382 42.11 68.6442 42.11ZM68.6332 40.856C69.0219 40.856 69.3812 40.79 69.7112 40.658C70.0412 40.526 70.3272 40.339 70.5692 40.097C70.8112 39.8477 70.9982 39.5617 71.1302 39.239C71.2695 38.909 71.3392 38.546 71.3392 38.15C71.3392 37.754 71.2695 37.3947 71.1302 37.072C70.9982 36.742 70.8112 36.456 70.5692 36.214C70.3272 35.9647 70.0412 35.774 69.7112 35.642C69.3812 35.51 69.0219 35.444 68.6332 35.444C68.2445 35.444 67.8852 35.51 67.5552 35.642C67.2325 35.774 66.9465 35.9647 66.6972 36.214C66.4552 36.456 66.2645 36.742 66.1252 37.072C65.9932 37.3947 65.9272 37.754 65.9272 38.15C65.9272 38.5387 65.9932 38.898 66.1252 39.228C66.2645 39.558 66.4552 39.8477 66.6972 40.097C66.9392 40.339 67.2252 40.526 67.5552 40.658C67.8852 40.79 68.2445 40.856 68.6332 40.856ZM74.3722 42V34.3H75.7802V39.767L79.9162 34.3H81.2472V42H79.8392V36.544L75.7032 42H74.3722ZM86.9481 42.11C86.3615 42.11 85.8151 42.0147 85.3091 41.824C84.8105 41.626 84.3741 41.351 84.0001 40.999C83.6335 40.6397 83.3475 40.218 83.1421 39.734C82.9368 39.25 82.8341 38.722 82.8341 38.15C82.8341 37.578 82.9368 37.05 83.1421 36.566C83.3475 36.082 83.6371 35.664 84.0111 35.312C84.3851 34.9527 84.8215 34.6777 85.3201 34.487C85.8188 34.289 86.3651 34.19 86.9591 34.19C87.5898 34.19 88.1655 34.3 88.6861 34.52C89.2068 34.7327 89.6468 35.0517 90.0061 35.477L89.0821 36.346C88.8035 36.0453 88.4918 35.8217 88.1471 35.675C87.8025 35.521 87.4285 35.444 87.0251 35.444C86.6218 35.444 86.2515 35.51 85.9141 35.642C85.5841 35.774 85.2945 35.961 85.0451 36.203C84.8031 36.445 84.6125 36.731 84.4731 37.061C84.3411 37.391 84.2751 37.754 84.2751 38.15C84.2751 38.546 84.3411 38.909 84.4731 39.239C84.6125 39.569 84.8031 39.855 85.0451 40.097C85.2945 40.339 85.5841 40.526 85.9141 40.658C86.2515 40.79 86.6218 40.856 87.0251 40.856C87.4285 40.856 87.8025 40.7827 88.1471 40.636C88.4918 40.482 88.8035 40.251 89.0821 39.943L90.0061 40.823C89.6468 41.241 89.2068 41.56 88.6861 41.78C88.1655 42 87.5861 42.11 86.9481 42.11ZM96.4269 42L93.8199 38.249L94.9749 37.534L98.0439 42H96.4269ZM91.3339 42V34.3H92.7419V42H91.3339ZM92.3129 38.755V37.523H94.9089V38.755H92.3129ZM95.1069 38.315L93.7979 38.139L96.4269 34.3H97.9449L95.1069 38.315ZM102.323 42V34.3H103.731V37.457H105.722V38.733H103.731V42H102.323ZM108.901 42.11C108.329 42.11 107.801 42.011 107.317 41.813C106.833 41.615 106.412 41.34 106.052 40.988C105.693 40.636 105.411 40.218 105.205 39.734C105.007 39.25 104.908 38.722 104.908 38.15C104.908 37.578 105.007 37.05 105.205 36.566C105.411 36.082 105.693 35.664 106.052 35.312C106.412 34.96 106.833 34.685 107.317 34.487C107.801 34.289 108.329 34.19 108.901 34.19C109.466 34.19 109.99 34.289 110.474 34.487C110.966 34.685 111.391 34.96 111.75 35.312C112.11 35.664 112.388 36.082 112.586 36.566C112.784 37.05 112.883 37.578 112.883 38.15C112.883 38.722 112.784 39.25 112.586 39.734C112.388 40.218 112.11 40.636 111.75 40.988C111.391 41.34 110.966 41.615 110.474 41.813C109.99 42.011 109.466 42.11 108.901 42.11ZM108.901 40.856C109.261 40.856 109.594 40.79 109.902 40.658C110.218 40.526 110.489 40.339 110.716 40.097C110.944 39.855 111.12 39.5727 111.244 39.25C111.376 38.92 111.442 38.5533 111.442 38.15C111.442 37.7467 111.376 37.3837 111.244 37.061C111.12 36.731 110.944 36.445 110.716 36.203C110.489 35.961 110.218 35.774 109.902 35.642C109.594 35.51 109.261 35.444 108.901 35.444C108.542 35.444 108.208 35.51 107.9 35.642C107.592 35.774 107.321 35.961 107.086 36.203C106.859 36.445 106.679 36.731 106.547 37.061C106.423 37.3837 106.36 37.7467 106.36 38.15C106.36 38.5533 106.423 38.92 106.547 39.25C106.679 39.5727 106.859 39.855 107.086 40.097C107.321 40.339 107.592 40.526 107.9 40.658C108.208 40.79 108.542 40.856 108.901 40.856ZM114.483 42V34.3H117.651C118.333 34.3 118.916 34.41 119.4 34.63C119.892 34.85 120.269 35.1653 120.533 35.576C120.797 35.9867 120.929 36.4743 120.929 37.039C120.929 37.6037 120.797 38.0913 120.533 38.502C120.269 38.9127 119.892 39.228 119.4 39.448C118.916 39.668 118.333 39.778 117.651 39.778H115.275L115.913 39.107V42H114.483ZM115.913 39.261L115.275 38.568H117.585C118.216 38.568 118.689 38.436 119.004 38.172C119.327 37.9007 119.488 37.523 119.488 37.039C119.488 36.5477 119.327 36.17 119.004 35.906C118.689 35.642 118.216 35.51 117.585 35.51H115.275L115.913 34.806V39.261ZM122.293 42V34.3H123.701V39.767L127.837 34.3H129.168V42H127.76V36.544L123.624 42H122.293ZM134.869 42.11C134.282 42.11 133.736 42.0147 133.23 41.824C132.731 41.626 132.295 41.351 131.921 40.999C131.554 40.6397 131.268 40.218 131.063 39.734C130.858 39.25 130.755 38.722 130.755 38.15C130.755 37.578 130.858 37.05 131.063 36.566C131.268 36.082 131.558 35.664 131.932 35.312C132.306 34.9527 132.742 34.6777 133.241 34.487C133.74 34.289 134.286 34.19 134.88 34.19C135.511 34.19 136.086 34.3 136.607 34.52C137.128 34.7327 137.568 35.0517 137.927 35.477L137.003 36.346C136.724 36.0453 136.413 35.8217 136.068 35.675C135.723 35.521 135.349 35.444 134.946 35.444C134.543 35.444 134.172 35.51 133.835 35.642C133.505 35.774 133.215 35.961 132.966 36.203C132.724 36.445 132.533 36.731 132.394 37.061C132.262 37.391 132.196 37.754 132.196 38.15C132.196 38.546 132.262 38.909 132.394 39.239C132.533 39.569 132.724 39.855 132.966 40.097C133.215 40.339 133.505 40.526 133.835 40.658C134.172 40.79 134.543 40.856 134.946 40.856C135.349 40.856 135.723 40.7827 136.068 40.636C136.413 40.482 136.724 40.251 137.003 39.943L137.927 40.823C137.568 41.241 137.128 41.56 136.607 41.78C136.086 42 135.507 42.11 134.869 42.11ZM140.786 42V35.158L141.127 35.51H138.245V34.3H144.757V35.51H141.875L142.205 35.158V42H140.786ZM149.458 42.11C148.856 42.11 148.303 42.011 147.797 41.813C147.291 41.615 146.851 41.34 146.477 40.988C146.103 40.6287 145.813 40.2107 145.608 39.734C145.402 39.25 145.3 38.722 145.3 38.15C145.3 37.578 145.402 37.0537 145.608 36.577C145.813 36.093 146.103 35.675 146.477 35.323C146.851 34.9637 147.291 34.685 147.797 34.487C148.303 34.289 148.853 34.19 149.447 34.19C150.048 34.19 150.598 34.289 151.097 34.487C151.603 34.685 152.043 34.9637 152.417 35.323C152.791 35.675 153.08 36.093 153.286 36.577C153.491 37.0537 153.594 37.578 153.594 38.15C153.594 38.722 153.491 39.25 153.286 39.734C153.08 40.218 152.791 40.636 152.417 40.988C152.043 41.34 151.603 41.615 151.097 41.813C150.598 42.011 150.052 42.11 149.458 42.11ZM149.447 40.856C149.835 40.856 150.195 40.79 150.525 40.658C150.855 40.526 151.141 40.339 151.383 40.097C151.625 39.8477 151.812 39.5617 151.944 39.239C152.083 38.909 152.153 38.546 152.153 38.15C152.153 37.754 152.083 37.3947 151.944 37.072C151.812 36.742 151.625 36.456 151.383 36.214C151.141 35.9647 150.855 35.774 150.525 35.642C150.195 35.51 149.835 35.444 149.447 35.444C149.058 35.444 148.699 35.51 148.369 35.642C148.046 35.774 147.76 35.9647 147.511 36.214C147.269 36.456 147.078 36.742 146.939 37.072C146.807 37.3947 146.741 37.754 146.741 38.15C146.741 38.5387 146.807 38.898 146.939 39.228C147.078 39.558 147.269 39.8477 147.511 40.097C147.753 40.339 148.039 40.526 148.369 40.658C148.699 40.79 149.058 40.856 149.447 40.856ZM155.186 42V34.3H158.629C159.494 34.3 160.169 34.4723 160.653 34.817C161.137 35.1543 161.379 35.642 161.379 36.28C161.379 36.9107 161.148 37.3983 160.686 37.743C160.224 38.0803 159.615 38.249 158.86 38.249L159.058 37.853C159.916 37.853 160.579 38.0253 161.049 38.37C161.518 38.7147 161.753 39.2133 161.753 39.866C161.753 40.5333 161.507 41.0577 161.016 41.439C160.524 41.813 159.798 42 158.838 42H155.186ZM156.594 40.9H158.794C159.292 40.9 159.67 40.8083 159.927 40.625C160.183 40.4343 160.312 40.1447 160.312 39.756C160.312 39.3673 160.183 39.085 159.927 38.909C159.67 38.7257 159.292 38.634 158.794 38.634H156.594V40.9ZM156.594 37.589H158.508C158.97 37.589 159.322 37.4973 159.564 37.314C159.806 37.1233 159.927 36.852 159.927 36.5C159.927 36.1333 159.806 35.8583 159.564 35.675C159.322 35.4917 158.97 35.4 158.508 35.4H156.594V37.589Z"
                                fill="#1E2139" />
                        <defs>
                            <clipPath id="clip0_388_569">
                                <rect width="47" height="47" rx="23.5" fill="white" />
                            </clipPath>
                        </defs>
                    </svg>