<svg width="188.000244" height="26.000000" viewBox="0 0 188 26" fill="none" xmlns="http://www.w3.org/2000/svg" xmlns:xlink="http://www.w3.org/1999/xlink">
	<desc>
			Created with Pixso.
	</desc>
	<defs/>
	<path id="Vector" d="M15 4C21.07 4 26 8.02 26 13C26 17.97 21.07 22 15 22C8.92 22 4 17.97 4 13C4 8.02 8.92 4 15 4Z" fill="#710202" fill-opacity="1.000000" fill-rule="evenodd"/>
	<path id="Vector" d="M29.3 17.03Q30 15.14 30 13Q30 10.88 29.32 9.01Q28.26 6.08 25.53 3.75Q23.95 2.4 22.14 1.54Q18.91 0 14.93 0Q10.92 0 7.68 1.58Q5.93 2.43 4.4 3.75Q1.77 6.02 0.71 8.88Q0 10.8 0 13Q0 15.22 0.73 17.17Q1.79 20 4.4 22.25Q5.9 23.54 7.62 24.39Q10.88 26 14.93 26Q18.95 26 22.2 24.43Q23.98 23.57 25.53 22.25Q28.23 19.94 29.3 17.03ZM29 13C29 6.37 22.7 1 14.93 1C7.17 1 1 6.37 1 13C1 19.65 7.17 25 14.93 25C22.7 25 29 19.65 29 13Z" fill="#710202" fill-opacity="1.000000" fill-rule="evenodd"/>
	<path id="Vector" d="M28 14.53L27.75 14.44L27.76 14.29L27.11 14.21C27.06 14.2 27.01 14.21 26.97 14.23C26.92 14.25 26.89 14.28 26.86 14.32C26.83 14.37 26.81 14.42 26.8 14.48C26.79 14.54 26.79 14.6 26.8 14.65C26.81 14.7 26.84 14.74 26.87 14.77C26.98 14.8 26.95 14.82 27 14.83L27.67 14.91L27.7 14.76L27.8 14.77L27.71 15.34L27.61 15.25L27.62 15.14L26.97 15.01C26.89 15 26.83 14.97 26.78 14.92C26.73 14.87 26.69 14.81 26.68 14.73C26.66 14.65 26.66 14.56 26.68 14.54C26.7 14.37 26.73 14.29 26.77 14.22C26.81 14.25 26.87 14.1 26.93 14.06C27 14.02 27.07 14.01 27.15 14.02L27.79 14.1L27.87 13.95L27.94 13.97L28 14.53ZM27.25 13.08L27.24 12.62L27.36 12.62L27.37 13.08L27.25 13.08ZM26.88 11.88L26.78 11.89L26.7 11.5L26.8 11.49L26.83 11.59L27.02 11.47L27.02 10.92L26.68 10.86L26.69 10.97L26.59 10.98L26.51 10.59L26.61 10.58L26.64 10.68L27.75 11L27.78 11.16L26.87 11.78L26.88 11.88ZM27.14 11.39L27.55 11.25L27.57 11.11L27.57 11.1L27.54 11.1L27.05 11.05L27.14 11.39ZM27.37 10.01L26.52 10.26L26.56 10.41L26.46 10.44L26.27 9.97L26.37 9.94L26.45 10.08L26.81 9.98L26.56 9.35L26.2 9.46L26.24 9.61L26.16 9.63L26.09 9.17L26.05 9.14L26.13 9.28L26.98 9.04L26.94 8.99L27.04 8.86L27.22 9.33L27.13 9.35L27.05 9.32L26.68 9.32L26.93 9.94L27.3 9.84L27.26 9.74L27.35 9.66L27.41 9.8L27.48 9.98L27.54 10.13L27.45 10.15L27.37 10.01ZM26.58 8.63C26.64 8.65 26.48 8.65 26.42 8.63C26.37 8.61 26.31 8.7 26.26 8.53C26.28 8.58 26.29 8.63 26.29 8.68C26.29 8.72 26.27 8.76 26.25 8.8C26.22 8.83 26.19 8.86 26.22 8.88C26.06 8.92 26.04 8.91 25.87 8.86C25.88 8.8 25.69 8.72 25.62 8.59L25.27 8.01L25.36 7.97L25.46 8.2L26.27 7.76L26.2 7.63L26.29 7.57L26.37 7.71L26.61 8.1C26.68 8.23 26.85 8.34 26.82 8.44C26.79 8.53 26.67 8.59 26.58 8.63ZM25.56 8.27L25.73 8.54C25.84 8.62 25.82 8.67 25.88 8.7C25.94 8.79 25.99 8.82 26.05 8.71C26.09 8.69 26.12 8.67 26.14 8.64C26.29 8.61 26.17 8.58 26.16 8.54C26.3 8.5 26.14 8.46 26.11 8.48L25.93 8.11L25.56 8.27ZM26.5 8.15L26.37 7.92L26.04 8.06L26.2 8.33C26.24 8.39 26.28 8.43 26.33 8.46C26.38 8.48 26.43 8.49 26.48 8.46C26.68 8.44 26.56 8.4 26.57 8.35C26.57 8.3 26.55 8.23 26.5 8.15ZM25.75 7.27L25.86 7.18L25.53 6.76L25.38 6.93L25.55 7.36L25.45 7.41L25.12 6.99L24.78 7.19L25.13 7.63L25.28 7.58L25.37 7.7L25.15 7.83L24.51 6.96L24.54 6.91L24.66 7.03L25.52 6.6L25.32 6.47L25.51 6.42L26.07 7.27L25.85 7.4L25.75 7.27ZM24.77 6.45C24.7 6.45 24.63 6.43 24.56 6.4C24.48 6.36 24.41 6.3 24.33 6.23L24.1 6.01L23.85 6.2L23.95 6.32L23.88 6.38L23.5 6.01L23.57 5.95L23.78 6.06L24.38 5.56L24.45 5.43L24.36 5.37L24.47 5.49L24.85 5.85C24.92 5.92 24.98 6 25.01 6.06C25.04 6.13 25.05 6.19 25.04 6.25C25.19 6.31 25 6.35 24.95 6.39C24.9 6.43 24.95 6.45 24.77 6.45ZM24.75 5.92L24.53 5.7L24.2 5.94L24.42 6.16C24.49 6.23 24.56 6.27 24.63 6.29C24.7 6.3 24.76 6.29 24.8 6.25C24.85 6.22 24.87 6.17 24.87 6.11C24.87 6.05 24.94 5.99 24.75 5.92ZM23.67 5.46L23.66 5.47C23.6 5.53 23.54 5.57 23.47 5.59C23.4 5.62 23.39 5.64 23.25 5.64C23.17 5.64 23.1 5.62 23.01 5.59C22.93 5.57 22.85 5.52 22.85 5.46C22.69 5.4 22.63 5.34 22.7 5.27C22.54 5.21 22.51 5.14 22.5 5.21C22.49 5.01 22.5 4.95 22.52 4.89C22.55 4.82 22.73 4.77 22.64 4.71L22.65 4.7C22.71 4.65 22.9 4.61 22.84 4.58C22.91 4.55 22.99 4.54 23.06 4.54C23.22 4.54 23.22 4.55 23.3 4.58C23.38 4.61 23.46 4.66 23.54 4.71C23.63 4.78 23.69 4.84 23.73 4.93C23.78 4.97 23.81 5.04 23.81 5.1C23.82 5.16 23.81 5.28 23.79 5.29C23.76 5.35 23.72 5.41 23.67 5.46ZM23.61 4.98C23.59 5.04 23.54 4.86 23.46 4.8C23.38 4.74 23.31 4.71 23.23 4.69C23.16 4.68 23.08 4.68 23.01 4.71C22.94 4.73 22.88 4.77 22.82 4.82L22.81 4.84C22.75 4.89 22.71 4.95 22.69 5.01C22.67 5.21 22.68 5.14 22.7 5.2C22.73 5.26 22.78 5.32 22.85 5.38C22.93 5.44 23.01 5.47 23.08 5.49C23.16 5.5 23.23 5.5 23.3 5.47C23.37 5.44 23.43 5.4 23.49 5.35L23.5 5.34C23.56 5.28 23.6 5.22 23.62 5.16C23.64 5.1 23.64 5.04 23.61 4.98ZM22.52 4.3L22.65 4.2L22.11 3.93L21.6 4.55L21.73 4.66L21.68 4.72L21.2 4.44L21.25 4.38L21.41 4.45L21.92 3.82L21.79 3.72L21.84 3.65L22.82 4.22L22.67 4.39L22.52 4.3ZM21.34 3.51L20.93 4.19L21.08 4.38L21.04 4.35L20.67 4.13L20.56 4.05L20.73 4.15L21.02 3.63L21.02 3.62L20.05 3.77L20.03 3.81L20.18 3.89L20.26 3.97L19.62 3.74L19.66 3.67L19.83 3.72L20.24 3.04L20.08 2.96L20.18 2.88L20.29 2.95L20.49 3.04L20.65 3.11L20.61 3.18L20.43 3.13L20.27 3.62L20.14 3.63L21.11 3.6L21.14 3.43L20.99 3.34L21.03 3.27L21.19 3.34L21.39 3.42L21.55 3.49L21.51 3.57L21.34 3.51ZM18.98 2.64L18.73 3.37L18.9 3.43L18.87 3.51L18.31 3.37L18.34 3.29L18.52 3.38L18.61 3.05L18.29 2.98L17.97 3.18C17.92 3.2 17.92 3.22 17.82 3.23C17.77 3.24 17.72 3.24 17.66 3.22C17.63 3.22 17.61 3.21 17.59 3.2C17.57 3.19 17.55 3.18 17.54 3.29L17.6 3.08C17.62 3.09 17.64 3.1 17.66 3.11C17.79 3.11 17.72 3.11 17.74 3.11C17.77 3.1 17.79 3.09 17.82 3.08L18.11 2.91L18.12 2.91C18.01 2.86 17.94 2.8 17.89 2.75C17.85 2.83 17.84 2.63 17.86 2.56C17.89 2.48 17.96 2.42 18.08 2.39C18.19 2.49 18.33 2.38 18.51 2.42L19.3 2.58L19.16 2.66L18.98 2.64ZM18.47 2.54C18.36 2.49 18.27 2.49 18.2 2.5C18.13 2.58 18.09 2.56 18.22 2.61C18.05 2.67 18.18 2.72 18.11 2.77C18.16 2.82 18.24 2.86 18.35 2.88L18.64 2.95L18.76 2.59L18.47 2.54ZM17.32 2.28L17.2 3.03L17.38 3.07L17.37 3.17L16.79 3.09L16.8 3.1L16.98 3.13L17.07 2.47L17.06 2.47L16.21 2.87L16.2 2.92L16.54 2.95L16.41 3.04L15.79 2.97L15.82 2.89L15.98 2.89L16.11 2.14L15.93 2.1L15.94 2.01L16.12 2.04L16.34 2.06L16.52 2.08L16.51 2.16L16.32 2.16L16.24 2.71L16.24 2.71L17.1 2.31L17.11 2.25L16.95 2.21L17.08 2.13L17.2 2.15L17.34 2.18L17.52 2.29L17.66 2.28L17.32 2.28ZM15.79 23.99L15.28 23.99L15.28 23.91L15.41 23.89L15.16 23.63L15.08 23.41L15.08 23.41L14.77 23.9L14.92 23.91L14.92 23.99L14.4 24L14.4 23.91L14.52 23.9L15.02 23.18C15.07 23.15 15.08 23.11 15.11 23.09C15.14 23.16 15.18 23.04 15.23 23.03C15.27 23.02 15.33 23.01 15.41 23.01C15.48 23.01 15.45 23.01 15.47 23.01C15.5 23.01 15.52 23.01 15.52 23.02L15.52 23.11C15.51 23.11 15.49 23.11 15.47 23.11C15.44 23.11 15.45 23.11 15.41 23.11C15.36 23.11 15.32 23.12 15.3 23.14C15.28 23.15 15.4 23.18 15.22 23.24L15.18 23.27L15.66 23.89L15.79 23.9L15.79 23.99ZM15 2.88L15.18 2.86L15.18 2.54L14.4 2.55L14.4 2.87L14.59 2.89L14.59 2.97L14 2.98L14 2.9L14.18 2.87L14.17 2.11L13.99 2.1L13.99 2.01L14.57 2.01L14.57 2.09L14.39 2.11L14.4 2.45L15.17 2.44L15.17 2.1L14.99 2.09L14.98 2L15.17 2L15.39 2L15.57 2L15.57 2.08L15.39 2.1L15.4 2.86L15.58 2.88L15.59 2.96L15 2.97L15 2.88ZM12.52 3.09L12.69 3.04L12.56 2.29L12.37 2.3L12.36 2.21L13.63 2.06L13.59 2.29L13.42 2.31L13.52 2.18L12.77 2.26L12.83 2.57L13.42 2.5L13.44 2.6L12.85 2.69L12.91 3.02L13.56 2.94L13.57 2.8L13.72 2.78L13.76 3.15L12.53 3.17L12.52 3.09ZM12.44 23.09C12.45 23.16 12.45 23.34 12.54 23.29L12.5 23.31C12.4 23.43 12.36 23.44 12.32 23.49C12.27 23.62 12.21 23.58 12.14 23.61C12.07 23.64 11.99 23.65 11.9 23.66C11.81 23.66 11.72 23.65 11.62 23.63C11.51 23.61 11.42 23.57 11.35 23.67C11.27 23.49 11.21 23.44 11.17 23.39C11.13 23.33 11.19 23.27 11.1 23.21C11.09 23.14 11.09 23.08 11.28 23.01L11.12 22.99C11.14 22.92 11.18 22.86 11.22 22.81C11.27 22.76 11.33 22.72 11.39 22.69C11.46 22.66 11.54 22.65 11.63 22.64C11.72 22.64 11.82 22.65 11.92 22.67C12.03 22.7 12.11 22.73 12.19 22.77C12.26 22.81 12.32 22.86 12.36 22.91C12.4 22.97 12.59 23.03 12.44 23.09ZM12.22 23.04C12.21 22.98 12.17 22.92 12.11 22.88C12.06 22.83 11.98 22.8 11.89 22.78C11.79 22.75 11.7 22.89 11.62 22.76C11.55 22.78 11.62 22.81 11.44 22.86C11.39 22.91 11.36 22.97 11.33 23.04L11.33 23.11C11.3 23.13 11.44 23.2 11.31 23.26C11.33 23.32 11.36 23.42 11.41 23.42C11.47 23.47 11.55 23.5 11.65 23.52C11.75 23.55 11.83 23.55 11.91 23.56C11.98 23.52 12.12 23.48 12.1 23.44C12.15 23.39 12.18 23.33 12.21 23.26L12.21 23.24C12.33 23.17 12.37 23.1 12.22 23.04ZM11.93 2.43L11.31 2.56L11.55 3.29L11.73 3.27L11.76 3.35L11.19 3.57L11.17 3.4L11.34 3.34L11.09 2.61L10.95 2.63L10.89 2.55L12.02 2.28L12.09 2.48L11.91 2.65L11.93 2.43ZM10.83 3.52C10.76 3.59 10.65 3.66 10.5 3.71L9.83 3.97L9.75 3.89L9.91 3.81L9.56 3.11L9.38 3.19L9.34 3.08L9.51 3.02L9.99 2.98C10.15 2.79 10.28 2.77 10.39 2.78C10.5 2.79 10.57 2.83 10.61 2.91C10.63 2.95 10.62 2.99 10.6 3.04C10.57 3.08 10.53 3.13 10.47 3.17C10.53 3.17 10.59 3.15 10.64 3.19C10.7 3.25 10.74 3.18 10.78 3.2C10.82 3.22 10.85 3.25 10.87 3.29C10.91 3.37 10.89 3.45 10.83 3.52ZM10.4 2.98C10.38 2.93 10.34 2.9 10.27 2.9C10.21 2.89 10.13 2.91 10.04 2.94L9.76 3.04L9.9 3.44L10.23 3.21C10.3 3.18 10.46 3.15 10.39 3.11C10.42 3.07 10.43 3.02 10.4 2.98ZM10.66 3.36C10.65 3.45 10.62 3.3 10.59 3.28C10.56 3.26 10.52 3.25 10.48 3.25C10.43 3.25 10.38 3.26 10.32 3.29L9.95 3.42L10.11 3.74L10.45 3.62C10.63 3.59 10.61 3.55 10.64 3.5C10.68 3.46 10.69 3.41 10.66 3.36ZM9.43 3.86L9.57 4.06L8.49 4.63L8.44 4.52L8.59 4.42L8.14 3.77L7.97 3.83L7.92 3.75L8.97 3.24L9.1 3.44L8.95 3.52L8.96 3.41L8.33 3.67L8.52 3.94L9.12 3.69L9.1 3.78L8.58 4.03L8.78 4.33L9.34 4.06L9.28 3.94L9.43 3.86ZM7.43 5.16L7.51 5.08L7.29 5.01L6.8 5.37L6.85 5.56L6.95 5.5L7.02 5.57L6.66 5.82L6.75 5.76L6.68 5.69L6.44 4.71L6.63 4.61L7.68 4.96L7.78 4.9L7.84 4.96L7.49 5.24L7.43 5.16ZM6.67 4.8L6.65 4.79L6.64 4.79L6.65 4.81L6.76 5.25L7.24 4.96L6.67 4.8ZM6.87 20.45L6.93 20.39L7.39 20.7L7.32 20.76L7.17 20.68L6.77 21.1L6.81 21.11L7.75 21.13L7.78 21.1L7.65 21.06L7.77 20.92L8.17 21.24L8.11 21.3L7.95 21.22L7.39 21.81L7.52 21.92L7.46 21.99L7.32 21.89L7.14 21.77L7 21.68L7.06 21.61L7.22 21.69L7.63 21.26L7.63 21.26L6.65 21.23L6.61 21.27L6.73 21.38L6.67 21.45L6.53 21.35L6.36 21.24L6.3 21.14L6.28 21.07L6.43 21.3L7 20.56L6.87 20.45ZM6.17 19.9L5.61 20.37L5.57 20.5L5.49 20.55L5.12 20.17L5.2 20.12L5.33 20.22L5.7 20.01L5.5 19.85C5.41 19.9 5.32 19.93 5.22 19.93C5.12 19.93 5.01 19.91 4.91 19.87C4.81 19.82 4.88 19.76 4.64 19.67C4.55 19.57 4.49 19.48 4.46 19.38C4.43 19.28 4.43 19.18 4.46 19.1C4.49 19.01 4.55 18.94 4.63 18.88L4.64 18.87C4.73 18.81 4.83 18.78 4.93 18.77C5.04 18.77 5.15 18.79 5.26 18.84C5.36 18.88 5.56 18.95 5.55 19.05C5.63 19.14 5.69 19.22 5.72 19.32C5.75 19.41 5.75 19.49 5.73 19.57C5.71 19.66 5.66 19.73 5.59 19.79L5.74 19.95L6.18 19.75L5.94 19.62L6.01 19.57L6.38 19.95L6.3 20.01L6.17 19.9ZM5.57 19.32C5.56 19.25 5.52 19.18 5.57 19.12C5.39 19.04 5.31 18.99 5.24 18.96C5.16 18.93 5.13 19.01 5 18.93C4.93 18.94 4.85 18.97 4.78 19.02L4.77 19.02C4.7 19.09 4.65 19.13 4.62 19.19C4.6 19.25 4.59 19.32 4.61 19.39C4.63 19.46 4.67 19.53 4.74 19.6C4.8 19.67 4.87 19.8 4.94 19.74C5.02 19.77 5.26 19.78 5.17 19.77C5.25 19.76 5.32 19.73 5.39 19.69L5.41 19.68C5.48 19.63 5.53 19.58 5.55 19.52C5.58 19.45 5.59 19.39 5.57 19.32ZM6.17 6.29L5.77 6.78L5.58 6.73L5.69 6.6L5.01 6.1L4.88 6.2L4.8 6.14L4.92 6.13L5.3 5.7C5.38 5.59 5.49 5.52 5.59 5.49C5.69 5.46 5.78 5.47 5.86 5.53C5.89 5.56 5.91 5.6 5.91 5.65C5.91 5.7 5.89 5.75 5.86 5.81C5.91 5.78 5.96 5.75 6.01 5.74C6.06 5.72 6.11 5.72 6.16 5.72C6.21 5.73 6.25 5.74 6.28 5.77C6.36 5.83 6.39 5.9 6.36 6C6.34 6.09 6.28 6.3 6.17 6.29ZM5.71 5.67C5.66 5.63 5.61 5.62 5.55 5.64C5.49 5.66 5.43 5.71 5.36 5.77L5.16 5.96L5.43 6.16L5.67 5.93C5.72 5.88 5.75 5.83 5.76 5.79C5.77 5.74 5.75 5.7 5.71 5.67ZM6.14 5.91C6.1 5.89 6.07 6 6.14 5.95C5.99 5.91 5.95 5.97 5.91 5.89C5.87 5.9 5.85 5.93 5.79 5.97L5.52 6.23L5.98 6.46L6.08 6.23C6.14 6.16 6.18 6.1 6.19 6.05C6.2 5.99 6.18 5.95 6.14 5.91ZM5.01 6.72C5.15 6.76 5.13 6.81 5.18 6.86C5.22 6.91 5.25 7.1 5.26 7.04C5.29 7.1 5.26 7.17 5.24 7.24C5.21 7.32 5.17 7.39 5.11 7.47C5.05 7.54 4.99 7.6 4.92 7.65C4.85 7.69 4.78 7.72 4.7 7.74C4.63 7.76 4.55 7.76 4.47 7.75C4.4 7.74 4.32 7.71 4.25 7.67L4.24 7.67C4.17 7.63 4.11 7.58 4.07 7.52C4.03 7.47 4.01 7.41 4 7.34C3.98 7.28 3.99 7.21 4.01 7.18C4.04 7.06 4.08 6.99 4.14 6.92C4.2 6.84 4.26 6.78 4.42 6.73C4.4 6.68 4.48 6.67 4.55 6.64C4.63 6.62 4.7 6.62 4.78 6.63C4.85 6.65 4.92 6.67 4.99 6.71L5.01 6.72ZM4.88 6.88L4.87 6.87C4.8 6.94 4.72 6.8 4.65 6.79C4.58 6.78 4.5 6.79 4.44 6.9C4.37 6.85 4.3 6.9 4.24 7.03C4.19 7.05 4.16 7.11 4.3 7.18C4.24 7.25 4.16 7.44 4.2 7.36C4.23 7.42 4.29 7.47 4.36 7.51L4.38 7.52C4.45 7.56 4.64 7.58 4.6 7.59C4.68 7.6 4.75 7.59 4.82 7.56C4.89 7.53 4.95 7.48 5 7.41C5.06 7.33 5.1 7.26 5.1 7.2C5.11 7.15 5.23 7.07 5.05 7.02C5.01 6.97 4.96 6.92 4.88 6.88ZM4.32 7.95C4.39 7.98 4.43 8.02 4.46 8.07C4.48 8.12 4.49 8.18 4.48 8.34C4.47 8.33 4.44 8.44 4.39 8.5L4.03 9.12L3.94 9.08L4 8.93L3.2 8.6L3.1 8.79L3.01 8.69L3.52 7.79L3.75 7.89L3.67 8.03L3.54 8L3.3 8.42L3.61 8.55L3.78 8.28C3.83 8.16 3.89 8.17 4.08 8.04C4.01 7.98 4.07 7.95 4.14 8.01C4.2 7.92 4.26 7.93 4.32 7.95ZM3.89 8.29L3.72 8.6L4.1 8.76L4.28 8.45C4.36 8.37 4.35 8.3 4.39 8.24C4.32 8.18 4.28 8.14 4.23 8.12C4.17 8.19 4.11 8.21 4.05 8.13C3.99 8.15 3.94 8.21 3.89 8.29ZM3.79 9.47L3.87 9.23L4.09 9.26L3.92 9.73L3.68 9.7L3.72 9.55L3.41 9.46L3.31 9.73L3.53 10.11C3.56 10.05 3.63 10.09 3.7 10.14C3.59 10.18 3.72 10.22 3.57 10.27C3.56 10.29 3.55 10.31 3.54 10.45C3.53 10.34 3.51 10.36 3.49 10.37L3.55 10.34C3.41 10.3 3.42 10.28 3.43 10.27C3.44 10.24 3.44 10.22 3.44 10.2C3.43 10.17 3.42 10.15 3.41 10.13L3.22 9.87L3.22 9.87C3.15 9.96 3.09 10.02 3.1 10.05C2.95 10.09 2.88 10.09 2.8 10.07C2.7 10.04 2.65 9.98 2.61 9.88C2.59 9.78 2.6 9.66 2.66 9.52L2.88 8.95L2.98 8.98L2.94 9.13L3.79 9.47ZM2.87 9.31L2.77 9.55C2.74 9.64 2.73 9.72 2.75 9.78C2.76 9.84 2.8 9.88 2.87 9.89C2.93 9.91 3 9.9 3.06 9.87C3.12 9.83 3.16 9.76 3.23 9.67L3.3 9.43L2.87 9.31ZM2.7 10.37C2.77 10.39 2.85 10.41 2.86 10.46C2.91 10.5 2.93 10.56 2.95 10.63C2.96 10.71 2.95 10.79 2.93 10.89L2.86 11.17L3.19 11.23L3.25 11.08L3.35 11.1L3.23 11.58L3.14 11.57L3.15 11.41L2.39 11.27L2.21 11.41L2.11 11.4L2.15 11.25L2.29 10.78C2.28 10.68 2.31 10.6 2.36 10.54C2.4 10.47 2.54 10.43 2.51 10.4C2.57 10.37 2.76 10.36 2.7 10.37ZM2.49 10.6C2.44 10.69 2.4 10.7 2.38 10.82L2.31 11.08L2.74 11.15L2.81 10.87C2.94 10.78 2.9 10.7 2.8 10.65C2.77 10.6 2.72 10.57 2.66 10.56C2.6 10.55 2.54 10.56 2.49 10.6ZM2.61 12.3L2.73 12.31L2.71 12.77L2.59 12.77L2.61 12.3ZM2.29 13.77L2.13 13.81L2.17 14.12L3.07 14.04L3.07 13.88L3.17 13.87L3.24 14.36L3.14 14.37L3.1 14.22L2.2 14.41L2.24 14.65L2.4 14.63L2.42 14.77L2.15 14.8L2 13.66L2.38 13.63L2.29 13.77ZM2.57 15.07L2.61 15.21L2.44 15.39C2.43 15.29 2.43 15.31 2.43 15.34C2.42 15.37 2.43 15.4 2.43 15.43C2.43 15.46 2.44 15.49 2.53 15.53C2.48 15.62 2.52 15.69 2.57 15.85C2.63 15.79 2.69 15.83 2.77 15.85C2.84 15.86 2.92 15.86 3.01 15.85L3.17 15.84C3.12 15.82 3.19 15.79 3.25 15.88C3.3 15.7 3.34 15.64 3.36 15.57C3.37 15.5 3.37 15.45 3.34 15.32C3.33 15.28 3.31 15.24 3.29 15.2C3.27 15.16 3.25 15.13 3.23 15.21L3.07 15.12L3.18 14.97L3.27 14.92C3.31 14.97 3.34 15.02 3.38 15.09C3.41 15.16 3.44 15.23 3.46 15.3C3.5 15.44 3.51 15.55 3.49 15.65C3.46 15.75 3.42 15.84 3.35 15.99C3.27 15.96 3.18 16 3.08 16.03L3.06 16.03C2.95 16.09 2.85 16.13 2.75 16.02C2.65 15.99 2.57 15.93 2.49 15.86C2.42 15.78 2.36 15.68 2.33 15.55C2.3 15.47 2.29 15.39 2.29 15.31C2.29 15.23 2.31 15.17 2.33 15.11L2.57 15.07ZM2.79 16.61L3.63 16.25L3.64 16.1L3.67 16.07L3.89 16.59L3.8 16.56L3.71 16.42L3.12 16.62L3.12 16.63L4 17.06L4 17.05L3.99 16.9L4.04 16.86L4.26 17.36L4.17 17.36L4.08 17.22L3.25 17.5L3.29 17.76L3.26 17.68L3.13 17.54L3.05 17.37L2.99 17.22L3.08 17.19L3.17 17.39L3.92 17.12L3.91 17.12L2.94 16.72L2.87 16.71L2.92 16.98L2.9 16.89L2.76 16.74L2.68 16.57L2.61 16.43L2.7 16.4L2.79 16.61ZM3.65 17.79C3.71 17.76 3.9 17.75 3.84 17.76C3.91 17.77 3.97 17.85 4.04 17.85C4.1 17.9 4.16 18.06 4.22 18.05L4.39 18.31L4.68 18.17L4.61 18.02L4.7 17.98L4.99 18.41L5.01 18.45L4.79 18.33L4.01 18.7L4.08 18.85L4 18.89L3.91 18.9L3.63 18.34C3.57 18.25 3.53 18.17 3.52 18.1C3.5 18.03 3.51 18.05 3.53 17.91C3.55 17.86 3.59 17.82 3.65 17.79ZM3.73 18.39L3.9 18.54L4.29 18.36L4.12 18.1C4.06 18.02 4 18.08 3.94 17.95C3.88 17.92 3.82 17.93 3.91 17.95C3.71 17.98 3.67 18.02 3.67 18.08C3.66 18.14 3.68 18.21 3.73 18.39ZM6.55 21.53C6.62 21.53 6.7 21.56 6.89 21.73C6.87 21.68 6.92 21.74 6.94 21.8C7.03 21.86 6.96 21.91 6.91 22.07L6.91 22.08L6.86 21.86C6.8 21.84 6.81 21.81 6.8 21.8C6.8 21.75 6.77 21.72 6.72 21.68C6.67 21.65 6.63 21.64 6.71 21.64C6.56 21.64 6.53 21.65 6.5 21.67L6.37 21.58L6.37 21.58C6.41 21.54 6.47 21.52 6.55 21.53ZM8.13 21.9L8.14 21.78C8.18 21.72 8.23 21.67 8.45 21.7C8.35 21.59 8.42 21.56 8.5 21.55C8.57 21.54 8.67 21.54 8.74 21.55C8.83 21.57 8.92 21.6 9.01 21.65C9.1 21.69 9.18 21.74 9.24 21.8C9.29 21.86 9.33 21.92 9.36 21.98C9.38 22.04 9.39 22.19 9.38 22.17C9.37 22.23 9.35 22.3 9.3 22.36L9.29 22.37C9.25 22.43 9.2 22.48 9.14 22.52C9.07 22.56 9 22.69 8.93 22.6C8.96 22.61 8.77 22.61 8.68 22.59C8.6 22.62 8.51 22.55 8.42 22.5C8.32 22.46 8.24 22.4 8.19 22.35C8.13 22.29 8.22 22.23 8.07 22.17C8.04 22.19 8.04 22.04 8.05 21.98C8.06 21.91 8.08 21.85 8.13 21.9ZM8.4 22.26C8.33 22.31 8.39 22.36 8.48 22.41C8.57 22.45 8.65 22.47 8.73 22.47C8.8 22.48 8.88 22.46 8.94 22.52C9 22.39 9.06 22.34 9.1 22.28L9.11 22.35C9.16 22.2 9.18 22.14 9.19 22.07C9.19 22.01 9.17 22.03 9.13 21.89C9.09 21.83 9.08 21.84 8.95 21.74C9 21.7 8.77 21.67 8.69 21.67C8.62 21.67 8.55 21.69 8.49 21.72C8.43 21.76 8.37 21.81 8.33 21.87L8.32 21.89C8.27 22.07 8.25 22.01 8.24 22.08C8.23 22.14 8.25 22.2 8.4 22.26ZM9.63 22.61C9.69 22.6 9.75 22.59 9.83 22.6C9.77 22.57 9.73 22.54 9.7 22.5C9.66 22.47 9.64 22.56 9.63 22.39C9.63 22.35 9.63 22.31 9.65 22.28C9.69 22.19 9.77 22.15 9.88 22.14C9.99 22.13 10.12 22.15 10.27 22.2L10.98 22.46L10.94 22.53L10.77 22.49L10.42 23.19L10.58 23.27L10.61 23.34L10.37 23.28L9.89 23.11C9.74 23.12 9.62 22.99 9.56 22.92C9.49 22.85 9.47 22.78 9.51 22.7C9.53 22.66 9.57 22.63 9.63 22.61ZM10.4 22.8L10.56 22.44L10.22 22.3C10.13 22.33 10.05 22.25 9.99 22.3C9.92 22.39 9.88 22.3 9.85 22.35C9.84 22.38 9.83 22.53 9.84 22.45C9.84 22.48 9.86 22.51 9.9 22.54C9.93 22.56 10.03 22.71 10.03 22.61L10.4 22.8ZM9.74 23.02C9.78 22.95 9.84 22.99 9.94 23.02L10.22 23.12L10.48 22.83L10.03 22.72C9.96 22.69 9.89 22.68 9.83 22.69C9.78 22.7 9.74 22.73 9.71 22.77C9.69 22.82 9.7 22.86 9.74 23.02ZM12.82 23.74L12.93 22.99L12.71 22.97L12.78 22.63L13.05 22.65L12.94 22.89L14.13 23.01L14.14 22.77L14.33 22.79L14.48 23.14L14.17 23.12C14.13 23.14 14.09 23.17 14.05 23.21C14.01 23.25 13.97 23.29 13.94 23.35C13.91 23.41 13.89 23.48 13.87 23.56L13.8 23.89L13.97 23.88L13.96 23.97L12.62 23.83L12.64 23.74L12.82 23.74ZM13.58 23.82L13.65 23.65C13.66 23.47 13.69 23.41 13.71 23.35C13.83 23.3 13.77 23.25 13.81 23.2C13.85 23.16 13.89 23.12 14.05 23.09L13.15 23.01L13.04 23.77L13.58 23.82ZM16.25 23.4C16.33 23.37 16.42 23.34 16.54 23.33L16.88 23.29L16.84 23.01L16.65 23.01L16.64 22.93L17.22 22.86L17.23 22.94L17.05 22.98L17.18 23.74L17.36 23.73L17.37 23.82L17.19 23.84L16.63 23.9C16.52 23.92 16.42 23.92 16.33 23.9C16.25 23.89 16.22 23.98 16.13 23.82C16.08 23.78 16.05 23.74 16.04 23.68C16.03 23.62 16.04 23.57 16.08 23.52C16.12 23.47 16.17 23.43 16.25 23.4ZM16.36 23.78C16.42 23.81 16.51 23.81 16.62 23.8L16.96 23.76L16.9 23.39L16.61 23.43C16.45 23.44 16.42 23.47 16.32 23.51C16.27 23.55 16.25 23.6 16.26 23.65C16.27 23.71 16.3 23.75 16.36 23.78ZM17.9 23.62L18.38 23.58L18.02 22.8L17.84 22.82L17.81 22.8L18.38 22.61L18.4 22.69L18.23 22.88L18.47 23.48L18.99 23.4L18.89 23.27L18.97 23.23L19.05 23.45L17.74 23.76L17.67 23.55L17.83 23.49L17.9 23.62ZM20.3 22.47L19.8 22.66L19.79 22.57L20.25 22.38L20.3 22.47ZM21.3 21.49C21.4 21.41 21.49 21.37 21.58 21.36C21.67 21.34 21.75 21.34 21.92 21.36C21.9 21.38 21.96 21.41 22 21.57L22.35 21.94L22.51 21.87L22.57 21.97L22.07 22.2L22.16 22.13L22.16 22.04L21.81 21.57C21.78 21.53 21.75 21.5 21.7 21.49C21.65 21.61 21.6 21.6 21.54 21.48C21.49 21.5 21.43 21.52 21.37 21.55C21.3 21.58 21.27 21.65 21.22 21.66C21.18 21.7 21.16 21.74 21.15 21.8C21.15 21.82 21.16 21.86 21.19 21.9L21.54 22.37L21.7 22.3L21.76 22.37L21.34 22.64L21.21 22.57L21.35 22.47L21 22C20.96 22.02 20.94 21.88 20.95 21.82C20.97 21.76 21 21.7 21.06 21.77C21.12 21.57 21.2 21.51 21.3 21.49ZM23.5 19.96L23.61 20.06L23.46 20.24L23.35 20.1L23.5 19.96ZM22.89 21.17L22.29 21.02L22.29 21.08L22.13 21.01L22.34 20.86L22.92 21.02L23.18 20.84L22.93 20.57L22.92 20.66L22.71 20.6L23.16 20.28L23.22 20.34L23.1 20.45L23.68 21.03L23.83 20.95L23.95 21.01L23.49 21.41C23.25 21.6 23.16 21.52 23.08 21.55C23.01 21.58 22.94 21.59 22.87 21.58C22.81 21.57 22.76 21.55 22.71 21.5C22.67 21.48 22.65 21.41 22.65 21.36C22.65 21.4 22.68 21.26 22.72 21.2C22.73 21.18 22.75 21.16 22.89 21.17ZM22.88 21.38C22.92 21.42 22.97 21.44 23.04 21.43C23.1 21.43 23.17 21.39 23.26 21.33L23.51 21.27L23.26 20.9L23.03 21.07C22.93 21.13 22.87 21.19 22.85 21.25C22.83 21.3 22.84 21.34 22.88 21.38ZM23.88 19.76C23.91 19.62 23.97 19.52 24.07 19.43L24.48 19.01L24.56 19.06L24.55 19.19L25.15 19.68L25.28 19.58L25.36 19.63L25.24 19.75L24.95 20.04C24.85 20.14 24.76 20.21 24.76 20.25C24.54 20.29 24.44 20.31 24.34 20.3C24.23 20.3 24.14 20.26 24.06 20.2L24.04 20.24C23.96 20.13 23.91 20.06 23.88 19.98C23.85 19.9 23.85 19.81 23.88 19.76ZM24.05 19.89C24.12 19.95 24.12 20 24.18 20.05L24.2 20.06C24.3 20.11 24.34 20.13 24.41 20.14C24.49 20.15 24.56 20.15 24.66 20.12C24.72 20.09 24.79 20.04 24.85 19.98L25.01 19.83L24.32 19.34L24.17 19.49C24.1 19.62 24.06 19.62 24.04 19.69C24.02 19.76 24.03 19.83 24.05 19.89ZM25.01 18.95C24.94 18.88 24.9 18.83 24.88 18.9C24.85 18.71 24.85 18.64 24.88 18.56C24.9 18.48 24.94 18.4 25.01 18.32C25.07 18.24 25.13 18.17 25.22 18.16C25.28 18.07 25.35 18.04 25.43 18.03C25.5 18.02 25.57 18.03 25.64 18.07L26.19 18.36L26.31 18.24L26.39 18.38L26.08 18.71L26 18.66L26.08 18.52L25.52 18.23C25.48 18.2 25.43 18.19 25.38 18.2C25.33 18.2 25.28 18.22 25.24 18.25C25.19 18.32 25.15 18.32 25.11 18.37C25.07 18.43 25.04 18.48 25.18 18.53C25.04 18.57 25.05 18.62 25.03 18.66C25.05 18.7 25.08 18.73 25.13 18.8L25.68 19.05L25.8 18.93L25.88 18.97L25.57 19.43L25.49 19.35L25.56 19.21L25.01 18.95ZM26.17 17.73C26.19 17.69 26.14 17.63 26.22 17.56C26.25 17.54 26.32 17.52 26.17 17.62L25.67 17.56L25.61 17.7L25.52 17.61L25.63 17.4L26.23 17.37L26.37 17.06L26.02 16.92L25.92 17.06L25.83 17.02L26.07 16.57L26.33 16.6L26.11 16.75L26.93 17.06L27.02 16.93L27.11 16.96L26.81 17.52C26.77 17.62 26.78 17.69 26.66 17.74C26.6 17.8 26.54 17.83 26.48 17.85C26.42 17.87 26.36 17.86 26.3 17.84C26.24 17.82 26.2 17.78 26.17 17.73ZM26.39 17.67C26.45 17.69 26.5 17.69 26.55 17.66C26.61 17.63 26.66 17.57 26.7 17.51L26.84 17.23L26.48 17.1L26.36 17.43C26.31 17.43 26.29 17.5 26.29 17.56C26.3 17.61 26.37 17.73 26.39 17.67ZM27.02 16.46L27.19 16.47L27.29 16.17L26.42 15.96L26.35 16.1L26.26 16.08L26.42 15.6L26.52 15.63L26.49 15.78L27.35 15.99L27.46 15.7L27.31 15.63L27.36 15.5L27.62 15.56L27.24 16.66L26.98 16.6L27.02 16.46Z" fill="#200101" fill-opacity="1.000000" fill-rule="evenodd"/>
	<path id="Vector" d="M17.88 18L17.88 16.59L16.53 16.37L16.53 9.86L18.55 9.86L18.62 10.94L21 10.94L21 8L9 8L9 10.94L11.35 10.94L11.43 9.86L13.51 9.86L13.51 16.37L12.07 16.59L12.07 18L17.88 18Z" fill="#F3F3F3" fill-opacity="1.000000" fill-rule="evenodd"/>
	<path id="Vector" d="M18.18 19.65C19.11 19.42 19.82 19.08 20.34 18.64C20.85 18.19 21.11 17.71 21.11 17.01L21.11 11.94L23 11.91L23 11L16.94 11L16.94 11.91L18.85 11.94L18.85 17.01C18.85 17.46 18.82 17.83 18.34 18.13C18.01 18.54 17.55 18.66 16.97 18.81C16.39 18.96 15.72 19.03 14.96 19.03C14.21 19.03 13.55 18.96 12.98 18.8C12.41 18.65 11.96 18.48 11.69 18.26C11.32 17.82 11.16 17.45 11.16 17.01L11.16 11.94L13.05 11.91L13.05 11L7 11L7 11.91L8.88 11.94L8.88 17.01C8.88 17.63 9.14 18.16 9.74 18.61C10.19 19.18 10.91 19.4 11.87 19.64C12.89 19.88 13.77 20 14.93 20C16.17 20 17.25 19.88 18.18 19.65Z" fill="#F3F3F3" fill-opacity="1.000000" fill-rule="evenodd"/>
	<path id="Vector" d="M185.86 5.55L185.86 15.03C185.86 16.5 185.49 17.75 184.75 18.79C184.01 19.82 182.99 20.61 181.68 21.16C180.38 21.75 178.85 21.97 177.11 21.97C175.34 21.97 173.79 21.75 172.47 21.17C171.16 20.64 170.14 19.85 169.46 18.94C168.7 17.78 168.34 16.52 168.34 15.03L168.34 5.55L166.22 5.13L166.22 2.46L175.46 2.46L175.46 5.13L173.32 5.55L173.32 15.03C173.32 15.81 173.46 16.45 173.76 16.96C174.05 17.46 174.48 17.86 175.04 18.09C175.6 18.47 176.28 18.46 177.09 18.46C177.92 18.46 178.67 18.47 179.18 18.09C179.74 17.86 180.16 17.46 180.45 16.96C180.74 16.45 180.88 15.81 180.88 15.03L180.88 5.55L178.76 5.13L178.76 2.46L188 2.46L188 5.13L185.86 5.55ZM156.85 14.74L153.47 14.7L153.47 18.55L155.61 19.08L155.61 21.69L146.36 21.69L146.36 19.08L148.5 18.55L148.5 5.55L146.36 5.13L146.36 2.38L156.5 2.38C158.13 2.38 159.55 2.63 160.75 3.11C161.95 3.6 162.88 4.29 163.53 5.19C164.18 6.08 164.51 7.15 164.51 8.38C164.51 9.51 164.18 10.56 163.52 11.53C163.14 12.36 162.23 13.04 161.31 13.59L163.47 18.53L165.43 18.99L165.43 21.69L159.42 21.69L156.85 14.74ZM158.8 6.7C158.24 6.2 157.48 6.07 156.5 6.07L153.47 6.07L153.47 11.13L156.56 11.13C157.61 11.13 158.26 10.92 158.94 10.5C159.3 10.08 159.56 9.47 159.56 8.76C159.56 7.86 159.3 7.2 158.8 6.7ZM139.82 17.95L144.79 17.95L144.79 21.69L139.82 21.69L139.82 17.95ZM134.38 20.49C132.95 21.29 131.3 21.69 129.44 21.69L119.78 21.69L119.78 19.08L121.94 18.52L121.94 5.63L119.78 5.13L119.78 2.46L121.94 2.46L129.44 2.46C131.3 2.46 132.95 2.8 134.38 3.61C135.82 4.42 136.94 5.54 137.76 6.96C138.57 8.39 138.97 10.04 138.97 12.01L138.97 12.21C138.97 14.07 138.57 15.72 137.76 17.14C136.94 18.57 135.82 19.68 134.38 20.49ZM133.97 11.89C133.97 10.69 133.79 9.8 133.43 8.76C133.06 7.91 132.53 7.17 131.99 6.68C131.11 6.18 130.23 5.95 129.18 5.95L126.92 5.95L126.92 18.24L129.18 18.24C130.23 18.24 131.11 17.92 131.99 17.43C132.53 16.93 133.06 16.28 133.43 15.34C133.79 14.44 133.97 13.4 133.97 12.21L133.97 11.89ZM116.82 15.03C116.82 16.5 116.45 17.75 115.71 18.79C114.97 19.82 113.95 20.61 112.64 21.16C111.34 21.75 109.81 21.97 108.07 21.97C106.3 21.97 104.75 21.75 103.43 21.17C102.12 20.64 101.1 19.85 100.38 18.94C99.78 17.78 99.3 16.52 99.3 15.03L99.3 5.55L97.18 5.13L97.18 2.46L106.42 2.46L106.42 5.13L104.28 5.55L104.28 15.03C104.28 15.81 104.42 16.45 104.72 16.96C105.01 17.46 105.44 17.86 106 18.09C106.72 18.47 107.24 18.46 108.05 18.46C108.88 18.46 109.57 18.47 110.14 18.09C110.7 17.86 111.12 17.46 111.41 16.96C111.7 16.45 111.84 15.81 111.84 15.03L111.84 5.55L109.72 5.13L109.72 2.46L118.96 2.46L118.96 5.13L116.82 5.55L116.82 15.03ZM87.81 14.74L84.43 14.7L84.43 18.55L86.57 19.08L86.57 21.69L77.46 21.69L77.46 19.08L79.45 18.55L79.45 5.55L77.46 5.13L77.46 2.38L87.46 2.38C89.09 2.38 90.51 2.63 91.71 3.11C92.91 3.6 93.84 4.29 94.49 5.19C95.14 6.08 95.46 7.15 95.46 8.38C95.46 9.51 95.14 10.56 94.48 11.53C93.92 12.36 93.28 13.04 92.27 13.59L94.45 18.53L96.39 18.99L96.39 21.69L90.38 21.69L87.81 14.74ZM89.73 6.7C89.2 6.2 88.44 6.07 87.46 6.07L84.43 6.07L84.43 11.13L87.52 11.13C88.48 11.13 89.36 10.92 89.74 10.5C90.35 10.08 90.52 9.47 90.52 8.76C90.52 7.86 90.3 7.2 89.73 6.7ZM72.67 6L69.45 6L69.45 18.55L71.61 19.08L71.61 21.69L62.33 21.69L62.33 19.08L64.48 18.55L64.48 6L61.29 6L61.16 8.08L57.41 8.08L57.41 2.46L76.58 2.46L76.58 8.08L72.78 8.08L72.67 6ZM54.82 15.03C54.82 16.5 54.45 17.75 53.86 18.79C52.98 19.82 51.95 20.61 50.64 21.16C49.34 21.75 47.81 21.97 46.08 21.97C44.33 21.97 42.75 21.75 41.44 21.17C40.12 20.64 39.1 19.85 38.38 18.94C37.66 17.78 37.31 16.52 37.31 15.03L37.31 5.55L35.18 5.13L35.18 2.46L44.42 2.46L44.42 5.13L42.28 5.55L42.28 15.03C42.28 15.81 42.5 16.45 42.72 16.96C43.01 17.46 43.44 17.86 44 18.09C44.56 18.47 45.24 18.46 46.05 18.46C46.88 18.46 47.57 18.47 48.14 18.09C48.84 17.86 49.12 17.46 49.41 16.96C49.7 16.45 49.84 15.81 49.84 15.03L49.84 5.55L47.72 5.13L47.72 2.46L56.96 2.46L56.96 5.13L54.82 5.55L54.82 15.03Z" fill="#710202" fill-opacity="1.000000" fill-rule="evenodd"/>
</svg>
