<svg width="20.000000" height="20.000000" viewBox="0 0 20 20" fill="none" xmlns="http://www.w3.org/2000/svg" xmlns:xlink="http://www.w3.org/1999/xlink">
	<desc>
			Created with Pixso.
	</desc>
	<defs>
		<clipPath id="clip29_34">
			<rect id="phone" rx="0.000000" width="19.000000" height="19.000000" transform="translate(0.500000 0.500000)" fill="white" fill-opacity="0"/>
		</clipPath>
	</defs>
	<rect id="phone" rx="0.000000" width="19.000000" height="19.000000" transform="translate(0.500000 0.500000)" fill="#FFFFFF" fill-opacity="0"/>
	<g clip-path="url(#clip29_34)">
		<path id="Vector" d="M1.08 8.13C1.37 8.47 1.77 8.66 2.18 8.66L5.31 8.66C5.72 8.66 6.12 8.47 6.41 8.13C6.71 7.8 6.87 7.34 6.87 6.87C6.87 5.08 8.43 5.08 10 5.08C11.56 5.08 13.12 5.08 13.12 6.87C13.12 7.34 13.28 7.8 13.58 8.13C13.87 8.47 14.27 8.66 14.68 8.66L17.81 8.66C18.22 8.66 18.62 8.47 18.91 8.13C19.21 7.8 19.37 7.34 19.37 6.87C19.37 2.41 17.81 0.62 10 0.62C2.18 0.62 0.62 2.41 0.62 6.87C0.62 7.34 0.78 7.8 1.08 8.13Z" stroke="#8E6E6E" stroke-opacity="1.000000" stroke-width="1.000000"/>
		<path id="Vector" d="M13.12 12.23C13.12 10.25 11.72 8.66 10 8.66C8.27 8.66 6.87 10.25 6.87 12.23C6.87 14.2 8.27 15.8 10 15.8C11.72 15.8 13.12 14.2 13.12 12.23Z" stroke="#8E6E6E" stroke-opacity="1.000000" stroke-width="1.000000"/>
		<path id="Vector" d="M3.74 8.66L2.22 13.89C2.03 14.52 1.98 15.18 2.07 15.84C2.16 16.49 2.38 17.11 2.72 17.64C3.06 18.18 3.5 18.61 4.01 18.91C4.53 19.21 5.1 19.37 5.67 19.37L14.31 19.37C14.89 19.37 15.46 19.21 15.98 18.91C16.49 18.61 16.93 18.18 17.27 17.64C17.61 17.11 17.83 16.49 17.92 15.84C18 15.18 17.95 14.52 17.77 13.89L16.24 8.66" stroke="#8E6E6E" stroke-opacity="1.000000" stroke-width="1.000000"/>
	</g>
</svg>
