<svg width="100.000000" height="34.306641" viewBox="0 0 100 34.3066" fill="none" xmlns="http://www.w3.org/2000/svg" xmlns:xlink="http://www.w3.org/1999/xlink">
	<desc>
			Created with Pixso.
	</desc>
	<defs>
		<clipPath id="clip88_565">
			<rect id="youdoLogo 1" rx="0.000000" width="99.000000" height="33.306568" transform="translate(0.500000 0.500000)" fill="white" fill-opacity="0"/>
		</clipPath>
	</defs>
	<g clip-path="url(#clip88_565)">
		<mask id="mask88_569" mask-type="alpha" maskUnits="userSpaceOnUse" x="0.000000" y="0.000000" width="100.000000" height="34.123047">
			<path id="Vector" d="M0 0L100 0L100 34.12L0 34.12L0 0Z" fill="#000000" fill-opacity="1.000000" fill-rule="nonzero"/>
		</mask>
		<g mask="url(#mask88_569)">
			<path id="Vector" d="M80.17 26.74C91.29 26.74 97.82 22.42 97.82 22.42L97.82 28.78C97.82 28.78 91.48 34.07 80.18 34.07L80.17 34.07C68.87 34.07 62.53 28.78 62.53 28.78L62.53 22.42C62.53 22.42 69.06 26.74 80.17 26.74L80.17 26.74Z" fill="#FF4646" fill-opacity="1.000000" fill-rule="nonzero"/>
			<path id="Vector" d="M27.27 0.26C26.04 0.25 24.81 0.48 23.66 0.95C22.52 1.41 21.47 2.1 20.59 2.97C19.71 3.84 19.02 4.88 18.54 6.02C18.06 7.17 17.82 8.39 17.82 9.63C17.82 10.87 18.06 12.1 18.54 13.25C19.02 14.39 19.71 15.43 20.59 16.3C21.47 17.17 22.52 17.86 23.66 18.32C24.81 18.79 26.04 19.02 27.27 19C29.73 18.98 32.08 17.98 33.81 16.22C35.54 14.47 36.51 12.1 36.51 9.63C36.51 7.17 35.54 4.8 33.81 3.05C32.08 1.29 29.73 0.29 27.27 0.26ZM27.27 13.13C25.4 13.13 23.89 11.51 23.89 9.63C23.89 7.76 25.41 6.14 27.27 6.14C29.14 6.14 30.66 7.76 30.66 9.63C30.66 11.51 29.15 13.13 27.27 13.13ZM19.32 0.71L12.84 0.71L10.05 6.77L6.85 0.71L0.43 0.71L6.96 12.51L3.92 18.56L10.41 18.56L19.32 0.71ZM90.65 0.26C89.41 0.25 88.19 0.48 87.04 0.95C85.89 1.41 84.85 2.1 83.97 2.97C83.09 3.84 82.39 4.88 81.92 6.02C81.44 7.17 81.19 8.39 81.19 9.63C81.19 10.87 81.44 12.1 81.92 13.25C82.39 14.39 83.09 15.43 83.97 16.3C84.85 17.17 85.89 17.86 87.04 18.32C88.19 18.79 89.41 19.02 90.65 19C93.11 18.98 95.46 17.98 97.19 16.22C98.91 14.47 99.88 12.1 99.88 9.63C99.88 7.17 98.91 4.8 97.19 3.05C95.46 1.29 93.11 0.29 90.65 0.26ZM90.65 13.13C88.78 13.13 87.26 11.51 87.26 9.63C87.26 7.76 88.78 6.14 90.65 6.14C92.52 6.14 94.04 7.76 94.04 9.63C94.04 11.51 92.52 13.13 90.65 13.13ZM49.41 0.74L49.41 10.74C49.39 11.36 49.13 11.95 48.69 12.38C48.24 12.81 47.65 13.05 47.03 13.05C46.41 13.05 45.82 12.81 45.38 12.38C44.93 11.95 44.67 11.36 44.65 10.74L44.65 0.74L38.69 0.74L38.69 11.36C38.69 16.02 42.19 19 46.8 19L47.26 19C51.86 19 55.36 16.02 55.36 11.36L55.36 0.74L49.41 0.74ZM70.03 0.74L62.49 0.74L62.49 18.56L70.12 18.56C75.69 18.56 79.56 14.58 79.56 9.65L79.56 9.42C79.56 4.5 75.52 0.74 70.03 0.74ZM73.73 9.65C73.73 11.46 72.46 12.89 70.32 12.95C69.21 12.99 68.2 12.95 68.2 12.95L68.2 6.35C68.2 6.35 69.1 6.32 70.32 6.35C72.51 6.42 73.73 7.84 73.73 9.65L73.73 9.65Z" fill="#000200" fill-opacity="1.000000" fill-rule="nonzero"/>
		</g>
	</g>
</svg>
