<svg width="72.524780" height="67.019043" viewBox="0 0 72.5248 67.019" fill="none" xmlns="http://www.w3.org/2000/svg" xmlns:xlink="http://www.w3.org/1999/xlink">
	<desc>
			Created with Pixso.
	</desc>
	<defs/>
	<path id="Vector" d="M36.31 66.62C18.49 66.62 0.39 63.03 0.39 56.17C0.39 50.05 14.33 47.52 20.29 46.73L20.51 46.73C21.36 46.73 22.09 47.31 22.2 48.1C22.26 48.52 22.14 48.94 21.86 49.26C21.58 49.58 21.19 49.84 20.74 49.89C8.31 51.58 3.7 54.64 3.7 56.23C3.7 59.18 16.41 63.51 36.26 63.51C56.1 63.51 68.81 59.18 68.81 56.23C68.81 54.64 64.15 51.58 51.61 49.89C51.16 49.84 50.76 49.63 50.48 49.26C50.2 48.94 50.09 48.52 50.15 48.1C50.26 47.31 50.99 46.73 51.83 46.73L52.06 46.73C58.07 47.52 72.13 50.05 72.13 56.17C72.19 62.98 54.14 66.62 36.31 66.62ZM35.13 55.43C34.29 54.7 14.84 37.44 14.84 20.49C14.84 9.41 24.45 0.39 36.26 0.39C48.06 0.39 57.68 9.41 57.68 20.49C57.68 36.96 38.23 54.64 37.38 55.38L36.26 56.44L35.13 55.43ZM36.31 3.55C26.36 3.55 18.27 11.15 18.27 20.49C18.27 33.74 32.04 47.94 36.31 52C40.64 47.83 54.42 33.37 54.42 20.49C54.36 11.21 46.27 3.55 36.31 3.55ZM36.31 29.47C30.69 29.47 26.14 25.19 26.14 19.91C26.14 14.64 30.69 10.36 36.31 10.36C41.94 10.36 46.49 14.64 46.49 19.91C46.49 25.19 41.94 29.47 36.31 29.47ZM36.31 13.53C32.55 13.53 29.51 16.38 29.51 19.91C29.51 23.45 32.55 26.3 36.31 26.3C40.08 26.3 43.12 23.45 43.12 19.91C43.12 16.38 40.02 13.53 36.31 13.53Z" fill="#F3F3F3" fill-opacity="1.000000" fill-rule="nonzero"/>
	<path id="Vector" d="M0.39 56.17C0.39 50.05 14.33 47.52 20.29 46.73L20.51 46.73C21.36 46.73 22.09 47.31 22.2 48.1C22.26 48.52 22.14 48.94 21.86 49.26C21.58 49.58 21.19 49.84 20.74 49.89C8.31 51.58 3.7 54.64 3.7 56.23C3.7 59.18 16.41 63.51 36.26 63.51C56.1 63.51 68.81 59.18 68.81 56.23C68.81 54.64 64.15 51.58 51.61 49.89C51.16 49.84 50.76 49.63 50.48 49.26C50.2 48.94 50.09 48.52 50.15 48.1C50.26 47.31 50.99 46.73 51.83 46.73L52.06 46.73C58.07 47.52 72.13 50.05 72.13 56.17C72.19 62.98 54.14 66.62 36.31 66.62C18.49 66.62 0.39 63.03 0.39 56.17ZM14.84 20.49C14.84 9.41 24.45 0.39 36.26 0.39C48.06 0.39 57.68 9.41 57.68 20.49C57.68 36.96 38.23 54.64 37.38 55.38L36.26 56.44L35.13 55.43C34.29 54.7 14.84 37.44 14.84 20.49ZM18.27 20.49C18.27 33.74 32.04 47.94 36.31 52C40.64 47.83 54.42 33.37 54.42 20.49C54.36 11.21 46.27 3.55 36.31 3.55C26.36 3.55 18.27 11.15 18.27 20.49ZM26.14 19.91C26.14 14.64 30.69 10.36 36.31 10.36C41.94 10.36 46.49 14.64 46.49 19.91C46.49 25.19 41.94 29.47 36.31 29.47C30.69 29.47 26.14 25.19 26.14 19.91ZM29.51 19.91C29.51 23.45 32.55 26.3 36.31 26.3C40.08 26.3 43.12 23.45 43.12 19.91C43.12 16.38 40.02 13.53 36.31 13.53C32.55 13.53 29.51 16.38 29.51 19.91Z" stroke="#710202" stroke-opacity="1.000000" stroke-width="0.781250"/>
</svg>
