<svg width="71.718445" height="72.524414" viewBox="0 0 71.7184 72.5244" fill="none" xmlns="http://www.w3.org/2000/svg" xmlns:xlink="http://www.w3.org/1999/xlink">
	<desc>
			Created with Pixso.
	</desc>
	<defs/>
	<path id="Vector" d="M35.85 0C16.05 0 0 16.23 0 36.26C0 56.28 16.05 72.52 35.85 72.52C55.66 72.52 71.71 56.28 71.71 36.26C71.71 16.23 55.66 0 35.85 0ZM5.5 49.27Q3 43.29 3 36.26Q3 29.22 5.5 23.24Q7.91 17.5 12.63 12.73Q17.54 7.76 23.49 5.33Q29.2 3 35.85 3Q42.51 3 48.21 5.33Q54.16 7.76 59.08 12.73Q63.8 17.5 66.2 23.24Q68.71 29.22 68.71 36.26Q68.71 43.29 66.2 49.27Q63.8 55.02 59.08 59.79Q54.16 64.76 48.21 67.19Q42.51 69.52 35.85 69.52Q29.2 69.52 23.49 67.19Q17.54 64.76 12.63 59.79Q7.91 55.02 5.5 49.27ZM48.65 56.86Q50.03 55.74 50.51 53.52L50.52 53.5L58.5 15.48L54.45 19.58Q53.88 19.18 53.25 18.98Q51.75 18.52 49.89 19.2L15.3 32.68Q12.67 33.74 11.91 35.57Q11.67 36.14 11.62 36.79Q11.52 37.99 11.98 38.91Q12.75 40.46 15.11 41.21L25.29 44.43L26.89 43.41L26.03 55.84L29.26 55.84Q30.53 55.84 31.56 55.34Q32.53 54.88 33.28 53.97L35.64 51.67L42.69 56.93L42.85 57.02Q44.7 58.08 46.38 57.85Q47.03 57.76 47.66 57.47Q48.2 57.22 48.65 56.86ZM35.38 47.74L44.34 54.42C45.98 55.35 47.15 54.87 47.58 52.88L52.33 30.25L53.47 24.84L53.47 24.84L53.46 24.84L53.46 24.84C53.84 23.04 53.2 22.04 52.19 21.86C51.83 21.79 51.41 21.84 50.98 22L16.42 35.47C14.05 36.42 14.1 37.74 16.01 38.35L24.86 41.14L35.69 34.24L43.9 29.02L45.38 28.07C46.34 27.43 47.22 27.79 46.5 28.44L44.66 30.11L37.53 36.63L29.88 43.61L29.49 49.28L29.25 52.84L29.26 52.84C29.99 52.84 30.64 52.49 31.06 51.95L32.41 50.63L35.38 47.74Z" fill="#8E6E6E" fill-opacity="1.000000" fill-rule="evenodd"/>
</svg>
