<svg width="100.000000" height="20.000000" viewBox="0 0 100 20" fill="none" xmlns="http://www.w3.org/2000/svg" xmlns:xlink="http://www.w3.org/1999/xlink">
	<desc>
			Created with Pixso.
	</desc>
	<defs>
		<clipPath id="clip88_563">
			<rect id="profi 1" rx="0.000000" width="99.000000" height="19.000000" transform="translate(0.500000 0.500000)" fill="white" fill-opacity="0"/>
		</clipPath>
	</defs>
	<g clip-path="url(#clip88_563)">
		<path id="Vector" d="M15.31 19.63L15.31 0.36L0 0.36L0 19.63L3.98 19.63L3.98 4.25L11.33 4.25L11.33 19.63L15.31 19.63ZM31.53 12.2C32.77 10.84 33.44 9.05 33.39 7.2C33.39 3.11 30.64 0.36 26.54 0.36L18.61 0.36L18.61 19.63L22.6 19.63L22.6 14.17L26.54 14.17C28.57 14.17 30.29 13.49 31.53 12.2ZM22.6 10.33L22.6 4.19L26.38 4.19C28.16 4.19 29.31 5.4 29.31 7.25C29.31 9.13 28.16 10.34 26.38 10.34L22.6 10.34L22.6 10.33ZM99.79 19.63L99.79 0.36L95.82 0.36L86.97 14.11L87.77 14.05L87.77 0.36L83.84 0.36L83.84 19.63L87.8 19.63L96.95 5.42L95.86 5.74L95.86 19.63L99.79 19.63ZM45.14 0C42.42 0 39.89 1.02 38.03 2.88C37.1 3.82 36.37 4.93 35.87 6.15C35.38 7.37 35.13 8.68 35.14 10C35.14 12.72 36.17 15.25 38.03 17.11C38.97 18.04 40.08 18.77 41.3 19.27C42.52 19.76 43.83 20.01 45.14 20C47.87 20 50.39 18.97 52.26 17.11C53.19 16.18 53.92 15.06 54.42 13.84C54.91 12.62 55.16 11.31 55.14 10C55.14 7.27 54.12 4.75 52.26 2.88C51.33 1.95 50.21 1.22 48.99 0.72C47.77 0.23 46.46 -0.02 45.14 0ZM45.14 16.14C41.81 16.14 39.2 13.44 39.2 10C39.17 9.2 39.31 8.41 39.6 7.66C39.89 6.92 40.32 6.25 40.88 5.67C41.43 5.1 42.1 4.65 42.83 4.33C43.56 4.02 44.35 3.86 45.14 3.85C48.48 3.85 51.1 6.55 51.1 10C51.12 10.79 50.98 11.58 50.69 12.33C50.4 13.07 49.97 13.74 49.41 14.32C48.86 14.89 48.19 15.34 47.46 15.66C46.73 15.97 45.94 16.13 45.14 16.14ZM78.97 15.54C79.73 14.79 80.32 13.9 80.73 12.92C81.13 11.94 81.33 10.89 81.32 9.83C81.32 7.6 80.49 5.58 78.97 4.09C77.33 2.55 75.16 1.71 72.91 1.75L71.2 1.75L71.2 0L67.37 0L67.37 1.75L65.62 1.75C63.25 1.75 61.1 2.59 59.55 4.09C58.8 4.84 58.2 5.73 57.79 6.72C57.39 7.7 57.19 8.76 57.2 9.83C57.2 12.04 58.04 14.06 59.55 15.54C61.1 17.04 63.25 17.87 65.62 17.87L67.37 17.87L67.37 20L71.2 20L71.2 17.86L72.91 17.86C75.28 17.86 77.43 17.04 78.97 15.54ZM67.37 14.05L65.44 14.05C64.88 14.07 64.32 13.97 63.8 13.77C63.29 13.56 62.81 13.25 62.42 12.85C62.03 12.46 61.72 11.98 61.52 11.46C61.32 10.94 61.23 10.39 61.26 9.83C61.23 9.27 61.32 8.71 61.52 8.19C61.72 7.67 62.02 7.19 62.42 6.79C62.81 6.4 63.28 6.08 63.8 5.88C64.32 5.67 64.88 5.58 65.44 5.6L67.37 5.6L67.37 14.05ZM71.19 5.6L73.09 5.6C73.65 5.58 74.2 5.67 74.72 5.88C75.24 6.08 75.72 6.4 76.11 6.79C76.5 7.19 76.81 7.67 77.01 8.19C77.21 8.71 77.3 9.27 77.27 9.83C77.3 10.39 77.21 10.95 77.01 11.47C76.81 11.99 76.5 12.46 76.11 12.86C75.72 13.26 75.24 13.57 74.72 13.77C74.2 13.98 73.65 14.07 73.09 14.05L71.19 14.05L71.19 5.6Z" fill="#E01935" fill-opacity="1.000000" fill-rule="nonzero"/>
	</g>
</svg>
